<?xml version="1.0" encoding="UTF-8"?>
<svg id="Capa_1" data-name="Capa 1" xmlns="http://www.w3.org/2000/svg" viewBox="0 0 180.22 20.08">
  <defs>
    <style>
      .cls-1 {
        fill: #00a374;
      }
    </style>
  </defs>
  <g>
    <path class="cls-1" d="m45.38,2.75c-.82-.88-1.82-1.56-2.96-2.04-1.14-.47-2.42-.71-3.81-.71s-2.64.24-3.78.72c-1.14.48-2.14,1.17-2.96,2.04-.82.87-1.47,1.94-1.92,3.16s-.68,2.6-.68,4.09.23,2.88.68,4.11c.46,1.23,1.1,2.29,1.92,3.16s1.82,1.56,2.96,2.03c1.14.47,2.41.71,3.78.71s2.67-.24,3.81-.71c1.14-.47,2.14-1.16,2.96-2.03s1.47-1.94,1.92-3.17c.45-1.22.68-2.6.68-4.1s-.23-2.87-.68-4.09c-.45-1.23-1.1-2.3-1.92-3.17Zm-6.77,15.57c-1.1,0-2.11-.19-3.02-.56-.9-.37-1.69-.92-2.34-1.63-.65-.71-1.17-1.59-1.53-2.61-.36-1.03-.55-2.21-.55-3.52s.18-2.48.55-3.51c.36-1.02.87-1.9,1.53-2.61.65-.71,1.44-1.26,2.34-1.63.91-.38,1.92-.57,3.02-.57s2.14.19,3.05.57c.91.38,1.69.92,2.33,1.63s1.15,1.59,1.51,2.62c.36,1.03.54,2.21.54,3.51s-.18,2.49-.54,3.52c-.36,1.02-.86,1.9-1.51,2.61-.64.71-1.43,1.25-2.33,1.62-.91.37-1.94.56-3.05.56Z"/>
    <rect class="cls-1" x="50.28" y=".22" width="1.89" height="19.61"/>
    <path class="cls-1" d="m61.3,9.76s-.06-.05-.1-.07c0,0,.02-.02.03-.02.14-.11.3-.25.48-.44L70.48.22h-1.72c-.22,0-.41.04-.56.11-.15.07-.3.19-.47.35l-7.71,7.93c-.09.09-.17.16-.25.22-.07.05-.15.09-.24.13-.08.03-.18.05-.28.07-.12.01-.26.02-.42.02h-.88V.19h-1.88v19.64h1.88v-9.21h.98c.2,0,.37.01.5.03.12.02.22.05.3.09.08.04.16.09.22.14.08.07.16.15.26.25l8.09,8.27c.12.12.24.22.35.29.14.1.35.14.64.14h1.71l-9.2-9.6c-.16-.19-.33-.35-.49-.48h0Z"/>
    <path class="cls-1" d="m85.86,2.75c-.82-.88-1.82-1.56-2.96-2.04-1.14-.47-2.42-.71-3.81-.71s-2.64.24-3.78.72c-1.14.48-2.14,1.17-2.96,2.04-.82.87-1.47,1.94-1.92,3.16s-.68,2.6-.68,4.09.23,2.88.68,4.11c.46,1.23,1.1,2.29,1.92,3.16s1.82,1.56,2.96,2.03c1.14.47,2.41.71,3.78.71s2.67-.24,3.81-.71,2.14-1.16,2.96-2.03,1.47-1.94,1.92-3.17c.45-1.22.68-2.6.68-4.1s-.23-2.87-.68-4.09c-.45-1.23-1.1-2.3-1.92-3.17Zm-6.77,15.57c-1.1,0-2.11-.19-3.02-.56-.9-.37-1.69-.92-2.34-1.63-.65-.71-1.17-1.59-1.53-2.61-.36-1.03-.55-2.21-.55-3.52s.18-2.48.55-3.51c.36-1.02.87-1.9,1.53-2.61.65-.71,1.44-1.26,2.34-1.63.91-.38,1.92-.57,3.02-.57s2.14.19,3.05.57c.91.38,1.69.92,2.33,1.63s1.15,1.59,1.51,2.62.54,2.21.54,3.51-.18,2.49-.54,3.52c-.36,1.02-.86,1.9-1.51,2.61-.64.71-1.43,1.25-2.33,1.62-.91.37-1.94.56-3.05.56Z"/>
    <path class="cls-1" d="m103.79,16.47L91.91.57c-.11-.14-.22-.24-.33-.29h0c-.11-.05-.24-.07-.4-.07h-.93v19.61h1.7V3.53l11.93,15.92c.17.25.42.38.71.38h.91V.22h-1.72v16.26h.01Z"/>
    <path class="cls-1" d="m123.44,2.75c-.82-.88-1.82-1.56-2.96-2.04-1.14-.47-2.42-.71-3.81-.71s-2.64.24-3.78.72c-1.14.48-2.14,1.17-2.96,2.04-.82.87-1.47,1.94-1.92,3.16s-.68,2.6-.68,4.09.23,2.88.68,4.11c.46,1.23,1.1,2.29,1.92,3.16s1.82,1.56,2.96,2.03c1.14.47,2.41.71,3.78.71s2.67-.24,3.81-.71,2.14-1.16,2.96-2.03,1.47-1.94,1.92-3.17c.45-1.22.68-2.6.68-4.1s-.23-2.87-.68-4.09c-.45-1.23-1.1-2.3-1.92-3.17Zm-6.77,15.57c-1.1,0-2.11-.19-3.02-.56-.9-.37-1.69-.92-2.34-1.63-.65-.71-1.17-1.59-1.53-2.61-.36-1.03-.55-2.21-.55-3.52s.18-2.48.55-3.51c.36-1.02.87-1.9,1.53-2.61.65-.71,1.44-1.26,2.34-1.63.91-.38,1.92-.57,3.02-.57s2.14.19,3.05.57c.91.38,1.69.92,2.33,1.63s1.15,1.59,1.51,2.62.54,2.21.54,3.51-.18,2.49-.54,3.52c-.36,1.02-.86,1.9-1.51,2.61-.64.71-1.43,1.25-2.33,1.62-.91.37-1.94.56-3.05.56Z"/>
    <path class="cls-1" d="m145.63.27c-.13.05-.24.15-.35.33l-7.51,13.28c-.05.09-.1.18-.15.28-.04-.09-.09-.18-.13-.27l-7.72-13.3c-.1-.17-.22-.27-.35-.32-.1-.04-.23-.05-.39-.05h-1.2v19.61h1.7V3.54l7.22,12.49c.23.39.54.48.76.48h.22c.23,0,.55-.08.76-.48l7.01-12.45v16.25h1.72V.22h-1.21c-.16,0-.28.02-.38.06h0Z"/>
    <path class="cls-1" d="m165.16,2.75c-.82-.88-1.82-1.56-2.96-2.04-1.14-.47-2.42-.71-3.81-.71s-2.64.24-3.78.72c-1.14.48-2.14,1.17-2.96,2.04-.82.87-1.47,1.94-1.92,3.16s-.68,2.6-.68,4.09.23,2.88.68,4.11c.46,1.23,1.1,2.29,1.92,3.16.82.87,1.82,1.56,2.96,2.03,1.14.47,2.41.71,3.78.71s2.67-.24,3.81-.71,2.14-1.16,2.96-2.03,1.47-1.94,1.92-3.17c.45-1.22.68-2.6.68-4.1s-.23-2.87-.68-4.09c-.45-1.23-1.1-2.3-1.92-3.17Zm-6.77,15.57c-1.1,0-2.11-.19-3.02-.56-.9-.37-1.69-.92-2.34-1.63-.65-.71-1.17-1.59-1.53-2.61-.36-1.03-.55-2.21-.55-3.52s.18-2.48.55-3.51c.36-1.02.87-1.9,1.53-2.61.65-.71,1.44-1.26,2.34-1.63.91-.38,1.92-.57,3.02-.57s2.14.19,3.05.57c.91.38,1.69.92,2.33,1.63s1.15,1.59,1.51,2.62.54,2.21.54,3.51-.18,2.49-.54,3.52c-.36,1.02-.86,1.9-1.51,2.61-.64.71-1.43,1.25-2.33,1.62-.91.37-1.94.56-3.05.56Z"/>
    <path class="cls-1" d="m179.73,11.92c-.29-.55-.68-1.03-1.15-1.41-.47-.37-1-.69-1.6-.93-.58-.24-1.18-.46-1.78-.66s-1.19-.4-1.76-.6c-.55-.2-1.05-.44-1.48-.72-.42-.28-.76-.62-1.02-1.01-.25-.38-.37-.87-.37-1.47,0-.46.09-.91.26-1.32.17-.42.42-.79.75-1.1.33-.32.75-.57,1.24-.76.5-.19,1.09-.28,1.75-.28s1.22.08,1.67.24c.45.16.84.34,1.14.54.3.19.54.37.72.53.55.5.98.36,1.2-.05l.41-.79-.13-.13c-.67-.67-1.42-1.17-2.24-1.5-.82-.33-1.75-.49-2.76-.49-.91,0-1.74.14-2.45.43-.72.29-1.33.67-1.82,1.15s-.87,1.03-1.13,1.66c-.25.62-.38,1.28-.38,1.95,0,.86.15,1.58.44,2.16.29.57.68,1.06,1.16,1.45.47.38,1,.69,1.6.94.57.23,1.17.45,1.79.64.6.19,1.19.38,1.76.58.55.19,1.05.43,1.48.71.42.27.76.61,1.01,1.02.25.39.37.91.37,1.53s-.1,1.14-.31,1.66c-.2.51-.5.95-.88,1.32s-.86.67-1.42.89-1.22.33-1.94.33c-.53,0-1-.05-1.41-.15-.42-.1-.79-.23-1.1-.38-.32-.15-.6-.31-.84-.49-.25-.18-.46-.35-.63-.5-.18-.16-.34-.29-.46-.4-.18-.15-.33-.22-.47-.22-.15,0-.38.05-.59.32l-.48.75.13.14c.7.8,1.53,1.43,2.47,1.89s2.07.69,3.37.69c1,0,1.9-.16,2.69-.47.78-.31,1.46-.75,2-1.29s.97-1.19,1.25-1.93c.28-.73.43-1.52.43-2.35s-.15-1.52-.44-2.08l-.05-.04Z"/>
    <rect class="cls-1" x="48.65" y=".22" width="5.14" height=".75"/>
    <rect class="cls-1" x="48.65" y="19.08" width="5.14" height=".75"/>
  </g>
  <path class="cls-1" d="m13.32,5.36V.02L0,3.35v16.65h13.32V7.87l8.57,2.14v9.99h2.42v-11.89s-10.99-2.75-10.99-2.75Zm-2.35,12.14H2.35V4.93l8.63-2.16v14.73h-.01Z"/>
</svg>
